<svg xmlns="http://www.w3.org/2000/svg" viewBox="0 0 280 280"><path d="M179.68 29h-.76a6.96 6.96 0 0 0-2.92 3.15 30.52 30.52 0 0 0-2.58 6.75 3.21 3.21 0 0 1-1.02 1.82c-.54.48-1.22.77-1.94.83a14.76 14.76 0 0 0-6.1 2.54 14.57 14.57 0 0 0-4.36 4.94 53.8 53.8 0 0 0-3.7 7.92c-2.84 7.28-5.02 14.8-7.7 22.15-1.26 3.34-1.32 3.34-5.12 3.34-4.54 0-4.22-.69-4.28 4.26 0 1.56.48 2.35 2.16 2.27.52 0 1.3-.25 1.5.42.2.67-.48.97-.88 1.37a18.05 18.05 0 0 1-8.66 4.83c-3.8 1-7.68 1.8-11.38 3.02-9.5 3.15-18.28 7.55-25.12 14.99a55.3 55.3 0 0 0-9.48 15.52c-7.34 17.1-10.9 35.11-13.66 53.3a368.2 368.2 0 0 0-2.92 25.73C70.4 212.4 70 216.68 70 221h66.66a4.28 4.28 0 0 0-.46-2.53 9.9 9.9 0 0 0-3.02-4.04 10.04 10.04 0 0 0-4.64-2.04c-1.4-.32-1.56-.73-.7-1.82a20.41 20.41 0 0 0 3.18-6.14c3.26-9.52 4.52-19.46 6.1-29.3A58.97 58.97 0 0 1 144 153.7a42.9 42.9 0 0 1 11.18-12.6c1.66-1.26 1.72-1.26 2 .86.2 1.4.24 2.85.34 4.28.6 9.35.48 18.73-.36 28.07a120.8 120.8 0 0 0-.3 21.77A147.41 147.41 0 0 0 161.4 221H188a10.66 10.66 0 0 0-2.86-5.7 10.85 10.85 0 0 0-5.62-3.09 18.17 18.17 0 0 0-7.52.4c-1.2.28-1.7 0-1.8-1.29a110.44 110.44 0 0 1 2-31.31 348.46 348.46 0 0 0 6.12-35.99 34.89 34.89 0 0 1 4.56-13.85c2.38-4.2 4.46-8.55 6.8-12.77a11.5 11.5 0 0 0 .84-10.27c-.54-1.4-1.06-2.83-1.72-4.18-2-3.86-4-7.68-5.84-11.58-.98-1.98-.76-2.22 1.42-2.28 3.26 0 3.26 0 3.32-3.24v-1.31c0-1.36-.52-2.12-2-1.98h-3.04c-1.38 0-1.78-.57-1.44-1.98a12.34 12.34 0 0 1 3.82-5.88 12.54 12.54 0 0 1 6.44-2.89 44.45 44.45 0 0 1 13.24.85 2.02 2.02 0 0 0 1.51-.12c.47-.24.82-.65.99-1.14.8-1.98 1.68-3.96 2.58-5.94a1.96 1.96 0 0 0-.2-2.26c-6.4-8.03-13.34-15.54-22.8-20.34a2.97 2.97 0 0 1-1.17-.9 2.94 2.94 0 0 1-.59-1.32 38.47 38.47 0 0 0-2.54-8.24 6.94 6.94 0 0 0-2.82-3.4z"/></svg>